/vscmnt/brussel_pixiu_data/_data_brussel/112/vsc11236/PredSimResults/SUBJ07mtu3D/weighted-expIG/worker_01.mot
version=1
nRows=6
nColumns=50
inDegrees=yes
endheader
                time	         pelvis_tilt	         pelvis_list	     pelvis_rotation	           pelvis_tx	           pelvis_ty	           pelvis_tz	       hip_flexion_r	     hip_adduction_r	      hip_rotation_r	        knee_angle_r	       ankle_angle_r	         mtp_angle_r	       hip_flexion_l	     hip_adduction_l	      hip_rotation_l	        knee_angle_l	       ankle_angle_l	         mtp_angle_l	    lumbar_extension	      lumbar_bending	     lumbar_rotation	 ercspn_r/activation	 intobl_r/activation	 extobl_r/activation	    abd_r/activation	    add_r/activation	hamstrings_r/activation	bifemsh_r/activation	glut_max_r/activation	iliopsoas_r/activation	rect_fem_r/activation	  vasti_r/activation	gastroc_r/activation	 soleus_r/activation	tib_ant_r/activation	 ercspn_l/activation	 intobl_l/activation	 extobl_l/activation	    abd_l/activation	    add_l/activation	hamstrings_l/activation	bifemsh_l/activation	glut_max_l/activation	iliopsoas_l/activation	rect_fem_l/activation	  vasti_l/activation	gastroc_l/activation	 soleus_l/activation	tib_ant_l/activation	
          1.63858190	         -6.29273204	          3.80155286	         -8.43396223	          2.08099902	          0.84603428	          0.01147006	        -13.13185778	         -4.31460710	          4.51321190	         -7.37151266	          8.36227540	         27.46231116	         30.65110883	          0.14149013	         -6.40306568	         -2.73809821	          7.52024309	          0.25050297	         -7.09774635	         -2.26768219	          3.66857211	          0.03477992	          0.01000000	          0.01000002	          0.03488758	          0.03711738	          0.02842535	          0.14485002	          0.02728020	          0.36267026	          0.01000012	          0.01000004	          0.26689147	          0.25431207	          0.01957375	          0.10202312	          0.17306931	          0.02514396	          0.01182066	          0.11974337	          0.06542041	          0.22151665	          0.01000001	          0.07827072	          0.01000007	          0.01000002	          0.02596355	          0.01142735	          0.27173150	
          1.64950578	         -6.35698366	          3.65500354	         -8.29659990	          2.09717923	          0.84419134	          0.01120756	        -13.17721502	         -4.15079363	          3.96196807	         -9.27534839	          7.65769785	         29.19588078	         30.75942906	          0.36540662	         -5.54091797	         -4.50674702	          7.20010969	          0.25184517	         -6.91314673	         -2.68681248	          3.78503059	          0.09805043	          0.01000001	          0.01000009	          0.02951410	          0.08281753	          0.02404723	          0.12253985	          0.02307843	          0.38375097	          0.01000009	          0.01000047	          0.22578415	          0.23620623	          0.01655895	          0.08630926	          0.14641275	          0.02127123	          0.01000001	          0.19679091	          0.05534421	          0.18739813	          0.07862890	          0.06621526	          0.01000010	          0.01000001	          0.02533211	          0.01450134	          0.27438421	
          1.66042966	         -6.40406248	          3.51718466	         -8.10527100	          2.11365992	          0.84247208	          0.01093486	        -13.04814613	         -3.98072322	          3.35488158	        -11.56743549	          6.86138677	         30.83762972	         30.66458551	          0.53761986	         -4.64219186	         -6.21408107	          6.84723203	          0.23649107	         -6.70809476	         -3.13625553	          3.87279254	          0.11888045	          0.01000000	          0.01000005	          0.02496827	          0.07006186	          0.02078326	          0.10366596	          0.01952384	          0.36153705	          0.01000007	          0.01000002	          0.19100830	          0.20719490	          0.01400850	          0.07361979	          0.12386197	          0.01799498	          0.07383425	          0.17465895	          0.06287905	          0.15853465	          0.08750303	          0.05601662	          0.01000003	          0.01000000	          0.02143040	          0.01226782	          0.32067921	
          1.67135354	         -6.43734033	          3.38142424	         -7.86039753	          2.13021356	          0.84106383	          0.01056976	        -12.66480067	         -3.80725585	          2.70826349	        -14.34067307	          5.92898635	         32.27668515	         30.40251510	          0.71985853	         -3.82818065	         -7.62543017	          6.37455025	          0.22466097	         -6.50849610	         -3.59186566	          3.93297539	          0.14827433	          0.01000000	          0.01000002	          0.02112259	          0.07675642	          0.01758236	          0.08769907	          0.01651672	          0.34321842	          0.01000003	          0.01000002	          0.16158871	          0.17528221	          0.01185087	          0.09007777	          0.10478443	          0.01522335	          0.12711150	          0.18309497	          0.05811539	          0.13411676	          0.12384519	          0.04738879	          0.01000002	          0.01000000	          0.01812964	          0.01037830	          0.34754045	
          1.68227742	         -6.45758486	          3.25057000	         -7.56762989	          2.14662864	          0.84013373	          0.01011929	        -11.97685969	         -3.64050748	          2.02005602	        -17.63550082	          4.84805584	         33.28799470	         30.06932532	          0.92264717	         -3.11509493	         -8.91916721	          5.94117667	          0.20857617	         -6.33391151	         -4.05566772	          3.96474810	          0.17863601	          0.01000000	          0.01000003	          0.01786923	          0.08266261	          0.01487433	          0.07419146	          0.01397278	          0.30199303	          0.01000002	          0.01000000	          0.13670040	          0.14828480	          0.01002557	          0.08725089	          0.08864527	          0.01287861	          0.15583751	          0.18547015	          0.04916452	          0.11345977	          0.14333020	          0.04008985	          0.01000003	          0.02773893	          0.01533727	          0.01000006	          0.37089223	
          1.69320130	         -6.46538752	          3.12452012	         -7.22889378	          2.16278271	          0.83980148	          0.00959826	        -10.97144887	         -3.49231150	          1.28103325	        -21.43395848	          3.60547182	         33.61513863	         29.70452380	          1.13617724	         -2.50492724	        -10.16899235	          5.65154412	          0.19298325	         -6.19323796	         -4.52488557	          3.96710317	          0.20285602	          0.01000000	          0.01000002	          0.01511697	          0.09373905	          0.01258338	          0.06276434	          0.01182065	          0.25547929	          0.01000001	          0.01000000	          0.11564545	          0.12544559	          0.00999999	          0.07564234	          0.07499190	          0.01089502	          0.17021605	          0.16659733	          0.04973006	          0.09598442	          0.13810724	          0.03391511	          0.01000003	          0.09504289	          0.01297500	          0.01000007	          0.37999953	
